# xmcd
# 
# Track frame offsets:
#     150
#     18021
#     35318
#     52829
# 
# Disc length: 932
# 
# Revision: 4
# Processed by: cddbd v1.5.2PL0 Copyright (c) Steve Scherf et al.
# Submitted via: BonkEnc v1.0.8
# 
DISCID=1e03a204
DTITLE=BoA - [Single]WOO WEEKEND
DYEAR=2010
DGENRE=Pop
TTITLE0=WOO WEEKEND
TTITLE1=NO DANCE, NO LIFE
TTITLE2=WOO WEEKEND INST
TTITLE3=NO DANCE, NO LIFE INST
EXTD=YEAR: 2010
EXTT0=
EXTT1=
EXTT2=
EXTT3=
PLAYORDER=
